<svg xmlns="http://www.w3.org/2000/svg" viewBox="0 0 560 288"><defs><style>.cls-1{fill:#fff;}.cls-2{fill:#119;}.cls-3{fill:none;}.cls-4{fill:#555fff;}</style></defs><g id="Layer_1" data-name="Layer 1"><path class="cls-1" d="M146,150q-4.08-7.46-8.11-7.46-3.36,0-6.61,6.81A28.91,28.91,0,0,0,128,161.58q0,6.87,6.88,6.88,5.83,0,10.12-6.1a9.36,9.36,0,0,1,1.42,4.67q0,4.16-8.82,6.88-6.36,1.93-20.36,1.94-46.32,0-46.32-14.66a21.8,21.8,0,0,1,.91-5.51,12.13,12.13,0,0,1,1.82-4.35c0-1.12-.48-1.68-1.43-1.68s-1.3.34-1.3,1c-1.2,1.21-2.29,3.38-3.24,6.49a28.86,28.86,0,0,0-1.43,8.3q0,11.29,12.72,15.83,10.5,3.76,33.6,3.76,1,0,6.48-.2t6-.19a41.3,41.3,0,0,0,9.93-1.42,28,28,0,0,0,9-3.77q6.09-4.15,6.1-14.14A31.55,31.55,0,0,0,146,150Zm-4.15,8.37a6,6,0,0,1-3,1.17,16.11,16.11,0,0,1-2.34.26A2.18,2.18,0,0,1,134,157.3a6.93,6.93,0,0,1,.91-2.85c.77-1.56,1.64-2.34,2.59-2.34a4.73,4.73,0,0,1,3.24,1.69,4.82,4.82,0,0,1,1.69,3.37A2.29,2.29,0,0,1,141.81,158.34Z"/><path class="cls-1" d="M142,123.83a42.4,42.4,0,0,0-4.93,8.17,51.38,51.38,0,0,0-7.78-5.7q3.38-4.68,4.93-7.14A76,76,0,0,0,142,123.83Z"/><path class="cls-1" d="M490.76,56.22c-46.29-11.06-84.6-3.12-121.3-21.71-54.57-27.64-117.65-26.24-171,1.2C145.25,63,64.06,13.52,19,80.45c-16.7,24.76-11,101.74,0,129.67,34.41,87.05,144.46,59.74,254.76,61.78,68,1.25,238.19,3,258.53-30.22C562.1,192.87,569.55,75.07,490.76,56.22Zm7.1,46.47q-2.07-1.92-7.06-1.92H470.4q-1.29,0-1.29,1.14v5.71q0,6.27,1.5,8.13t7.77,2.14a6.88,6.88,0,0,1,4.58,1.93,6,6,0,0,1,1.85,4.49,6.24,6.24,0,0,1-1.85,4.57,5.56,5.56,0,0,1-4.43,1.71Q461.4,130,456,125.31t-5.42-17.69V95.06a8.3,8.3,0,0,1,8.14-8.14h37.1q22.4,0,22.4,20V153a8.27,8.27,0,0,1-8.13,8.13H457.56a6.85,6.85,0,0,1-4.93-2,6.49,6.49,0,0,1-2.07-4.85,7.07,7.07,0,0,1,7-7h41.09c.86,0,1.28-.38,1.28-1.15V109.33Q499.93,104.62,497.86,102.69Zm-73.31-6.38c1-6.11,4.41-9,9.59-9,5.49,0,8.72,3,9.85,9.14.29,1.6.44,8.53.44,10.4v17.55a8.3,8.3,0,0,1-8.14,8.14h-3.42a8.28,8.28,0,0,1-8.13-8.14V109.33C424.74,108.36,424.43,97.1,424.55,96.31Zm-54.67,53.05a6.73,6.73,0,0,1,4.93-2.07h18.4a1,1,0,0,0,1.14-1.15V109.33q0-4.85-2-6.71c-1.34-1.24-3.67-1.85-7-1.85H379.8a7.05,7.05,0,0,1-7-7,6.48,6.48,0,0,1,2.06-4.85,6.86,6.86,0,0,1,4.93-2h11.85q22.39,0,22.4,20V153a8.28,8.28,0,0,1-8.14,8.13h-31.1a6.85,6.85,0,0,1-4.93-2,6.49,6.49,0,0,1-2.07-4.85A6.72,6.72,0,0,1,369.88,149.36ZM276.71,86.92a6.14,6.14,0,0,1,5.06,2.43,5.72,5.72,0,0,1,1.07,5.42l-3.42,14.42q-4,17.27-12.41,24.82a1.08,1.08,0,0,0-.29,1.71l13.41,18.84a3.64,3.64,0,0,1,.36,4.28,4,4,0,0,1-3.78,2.28h-3.57a16,16,0,0,1-7.2-1.71,14.14,14.14,0,0,1-5.64-4.85L241,127.16c-.39-.66-.86-.71-1.43-.14q-2.43,3-4.71,12.85l-3,13.41a9.44,9.44,0,0,1-3.49,5.63,9.93,9.93,0,0,1-6.36,2.21h-1.56a6.38,6.38,0,0,1-6.14-7.84l3.42-14.42q4.14-17.27,12.42-24.83a1.09,1.09,0,0,0,.29-1.71L217.06,93.49a4.19,4.19,0,0,1,3.43-6.57h3.56a16.52,16.52,0,0,1,7.35,1.71,13.37,13.37,0,0,1,5.49,4.86l19.27,27.39c.47.67.95.72,1.43.15q2.42-3,4.7-12.84l3-13.42a10.12,10.12,0,0,1,3.64-5.63,9.69,9.69,0,0,1,6.21-2.22ZM105.07,247.54a5,5,0,0,1-4.88,4.88H98.9A4.55,4.55,0,0,1,95.52,251a4.75,4.75,0,0,1-1.41-3.42v-26.2c0-1.89-.42-3.21-1.24-4s-2.24-1.16-4.24-1.16H77.24c-.51,0-.77.23-.77.69v3.68q0,15.24,3.77,20.72,2.91,4.28,2.91,7A4.1,4.1,0,0,1,79,252.42H63.12a4.11,4.11,0,0,1-3-1.2,3.89,3.89,0,0,1-1.24-2.91,4.25,4.25,0,0,1,4.2-4.2h8c.06,0,.09,0,.09-.08a.24.24,0,0,0-.09-.17q-5.82-6.26-5.82-23.29v-3.68a.61.61,0,0,0-.68-.69H63.12a4.23,4.23,0,0,1-4.2-4.19,3.89,3.89,0,0,1,1.24-2.91,4.11,4.11,0,0,1,3-1.2h28.5q13.44,0,13.45,12Zm.52-49.81c-9.14-.1-27.94-3.47-35.51-8.58-4.46-3-11-12.38-12.48-17.56-5.13-18.16,10.18-57.14,5.07-75.3-1.32-4.72-12.37-11.21-11.31-16,1.76-8,20.42-14.78,28.48-16.39,18.72-3.72,41.88-3.39,47.21-2.73,13.1,1.64,26.22,2.06,31.6,11.62.66,1.18,73.9-26.22,92.58-33.53,4.16-1.63,8.19-6.81,12.44-8.16,4.87-1.55,8.43-1.05,10.74,1.57,1.71,1.94-.91,6.87-4.65,8.59-2.52,1.17-7.27.14-13.31,2.38-20.48,7.56-97.78,37.61-99.7,40A16.92,16.92,0,0,0,153.44,95c1.58,18.23,9.45,56,5.6,73.88-1.17,5.44-6.31,16.17-10.77,19.5C139.51,194.89,116.51,197.84,105.59,197.73ZM207.36,106.9v77.49a8.3,8.3,0,0,1-8.14,8.13H195.8a8.28,8.28,0,0,1-8.13-8.13s-.44-48.81-.39-77.31c0-11.78,0-8.8,0-9.06,1.17-11.65,18.92-10.88,19.9-.29C207.31,98.67,207.36,105.88,207.36,106.9Zm-66,140.64A4.72,4.72,0,0,1,140,251a4.53,4.53,0,0,1-3.37,1.46h-2.06a5,5,0,0,1-4.88-4.88v-26.2q0-2.91-1.2-4c-.8-.75-2.2-1.12-4.19-1.12H111.14a3.89,3.89,0,0,1-2.91-1.24,4.09,4.09,0,0,1-1.2-3,4.1,4.1,0,0,1,4.11-4.11H128q13.37,0,13.36,12Zm43.23,3.68a3.93,3.93,0,0,1-2.91,1.2H149.16a4.1,4.1,0,0,1-4.11-4.11,4.09,4.09,0,0,1,1.2-2.95,3.9,3.9,0,0,1,2.91-1.25h18.41a.6.6,0,0,0,.68-.68V221c0-1.89-.35-3.15-1.07-3.81s-2-1-3.89-1H152a3.86,3.86,0,0,1-2.91-1.24,4,4,0,0,1-1.2-3A4.1,4.1,0,0,1,152,207.9h15.15q12.24,0,12.24,12.24v23.29c0,.45.26.68.77.68h1.54a3.87,3.87,0,0,1,2.91,1.25,4.09,4.09,0,0,1,1.2,2.95A4,4,0,0,1,184.6,251.22Zm26.63-3.68a5,5,0,0,1-4.88,4.88h-2a5,5,0,0,1-4.89-4.88v-26.2c0-1.94-.4-3.28-1.19-4s-2.2-1.12-4.2-1.12h-3.34a4.23,4.23,0,0,1-4.19-4.19,3.89,3.89,0,0,1,1.24-2.91,4.09,4.09,0,0,1,3-1.2h7.11q13.44,0,13.44,12ZM252.76,215a3.89,3.89,0,0,1-2.91,1.24H248.3c-.51,0-.77.23-.77.69v30.65a4.75,4.75,0,0,1-1.41,3.42,4.55,4.55,0,0,1-3.38,1.46h-2.06a5,5,0,0,1-4.88-4.88V216.89a.6.6,0,0,0-.68-.69H217.31A3.89,3.89,0,0,1,214.4,215a4.09,4.09,0,0,1-1.2-3,4.1,4.1,0,0,1,4.11-4.11h32.54A4.1,4.1,0,0,1,254,212,4.09,4.09,0,0,1,252.76,215Zm48.29,32.58a5,5,0,0,1-4.89,4.88H281.44a3.93,3.93,0,0,1-3-1.2,4,4,0,0,1-1.15-2.91,4.09,4.09,0,0,1,1.2-2.95,3.87,3.87,0,0,1,2.91-1.25h7.87c.52,0,.78-.23.78-.68V231.7q0-8.05-2.32-11.94c-1.54-2.6-3.57-3.9-6.07-3.9a7,7,0,0,0-5.31,2.27q-2.14,2.26-4.28,9.29a153.69,153.69,0,0,0-4.2,20.12A5.77,5.77,0,0,1,266,251a5.25,5.25,0,0,1-3.63,1.42h-1.46a3.91,3.91,0,0,1-3.17-1.46,4.28,4.28,0,0,1-.94-3.42q2.06-13.87,1.88-19.39t-3-15.63a3.38,3.38,0,0,1,.59-3.17,3.51,3.51,0,0,1,2.92-1.45h1.19a6.21,6.21,0,0,1,3.94,1.33,5.62,5.62,0,0,1,2.15,3.37,44,44,0,0,1,.76,5.66c0,.11,0,.17.09.17s.17,0,.17-.09Q274.25,207,283.07,207q18,0,18,23.54ZM299.54,93.35A9.42,9.42,0,0,1,294.15,95a4.8,4.8,0,0,1-3.89-2,4.58,4.58,0,0,1-.91-4.28l5.45-20.37a9.69,9.69,0,0,1,3.57-5.12,9.38,9.38,0,0,1,5.77-2h3.38a4.69,4.69,0,0,1,4.15,2.14,4.61,4.61,0,0,1,.39,4.6l-8.95,21A9.89,9.89,0,0,1,299.54,93.35Zm7.06,67.77a3.37,3.37,0,0,1-3.36-2.13,3.59,3.59,0,0,1,.64-4l30.83-35.67a3.49,3.49,0,0,0,.71-2v-8q0-4.85-2.07-6.71c-1.38-1.24-3.69-1.85-6.92-1.85H314.3a6.65,6.65,0,0,1-5-2.07,6.82,6.82,0,0,1-2-4.93,6.57,6.57,0,0,1,2-4.85,6.78,6.78,0,0,1,5-2h16.84q22.41,0,22.4,20v7.42A75.26,75.26,0,0,0,356,133.45a101.88,101.88,0,0,0,8.13,20.4,4.79,4.79,0,0,1-.07,4.85,4.37,4.37,0,0,1-4.06,2.42h-3a13.08,13.08,0,0,1-7.06-2,12.34,12.34,0,0,1-4.78-5.28,114.44,114.44,0,0,1-6.28-15.56.7.7,0,0,0-.57-.49q-.43-.08-.57.21l-14,16.84a16.36,16.36,0,0,1-13.27,6.27Zm61.31,86.42a5,5,0,0,1-4.88,4.88h-1.28a4.57,4.57,0,0,1-3.39-1.46,4.75,4.75,0,0,1-1.41-3.42v-26.2c0-1.89-.41-3.21-1.24-4s-2.24-1.16-4.24-1.16H340.09q-.78,0-.78.69v3.68q0,15.24,3.77,20.72,2.91,4.28,2.91,7a4.1,4.1,0,0,1-4.11,4.11H326a4.09,4.09,0,0,1-2.95-1.2,3.89,3.89,0,0,1-1.24-2.91,4.25,4.25,0,0,1,4.19-4.2H334c.05,0,.08,0,.08-.08a.27.27,0,0,0-.08-.17q-5.83-6.26-5.83-23.29v-3.68a.6.6,0,0,0-.68-.69H326a4.23,4.23,0,0,1-4.19-4.19A3.89,3.89,0,0,1,323,209.1a4.09,4.09,0,0,1,2.95-1.2h28.51q13.44,0,13.44,12Zm26.71-17.13a5,5,0,0,1-4.88,4.89h-2.05a5,5,0,0,1-4.88-4.89v-9.07q0-2.91-1.2-4c-.8-.75-2.2-1.12-4.2-1.12h-3.33a4.23,4.23,0,0,1-4.2-4.19,3.89,3.89,0,0,1,1.24-2.91,4.11,4.11,0,0,1,3-1.2h7.1q13.44,0,13.44,12Zm42.81,20.81a4,4,0,0,1-2.91,1.2H402a4.1,4.1,0,0,1-4.11-4.11,4.09,4.09,0,0,1,1.2-2.95,3.88,3.88,0,0,1,2.91-1.25h18.4a.61.61,0,0,0,.69-.68V221c0-1.89-.36-3.15-1.07-3.81s-2-1-3.9-1h-11.3A3.89,3.89,0,0,1,401.9,215a4.09,4.09,0,0,1-1.2-3,4.1,4.1,0,0,1,4.11-4.11H420q12.24,0,12.24,12.24v23.29c0,.45.26.68.77.68h1.54a3.9,3.9,0,0,1,2.91,1.25,4.09,4.09,0,0,1,1.2,2.95A4,4,0,0,1,437.43,251.22Zm35.79-3.68A4.72,4.72,0,0,1,471.8,251a4.51,4.51,0,0,1-3.37,1.46h-2.06a5,5,0,0,1-4.88-4.88v-26.2q0-2.91-1.2-4c-.8-.75-2.19-1.12-4.19-1.12H443a3.89,3.89,0,0,1-2.92-1.24,4.12,4.12,0,0,1-1.19-3A4.08,4.08,0,0,1,443,207.9h16.86q13.36,0,13.36,12Zm33.52-2.18A39.67,39.67,0,0,1,479.3,259.1a3.95,3.95,0,0,1-4.11-3.94,4.09,4.09,0,0,1,1.2-2.95,4.6,4.6,0,0,1,3-1.42,31.51,31.51,0,0,0,6.94-1.62.73.73,0,0,0,.51-.95l-9-35.62a3.69,3.69,0,0,1,.68-3.25,3.6,3.6,0,0,1,3-1.45h2.4a5.65,5.65,0,0,1,3.77,1.37,5.92,5.92,0,0,1,2.05,3.42L496,242.57c.11.46.34.51.69.17q9.84-9.84,10.95-30.05a5.34,5.34,0,0,1,1.59-3.38,4.62,4.62,0,0,1,3.38-1.41h1.46a4.54,4.54,0,0,1,3.38,1.45,4.45,4.45,0,0,1,1.32,3.43Q517.48,233.06,506.74,245.36Z"/></g><g id="Layer_6" data-name="Layer 6"><path class="cls-1" d="M155.15,276.91c-37.69,0-63.74-3.62-84.45-11.75C44.67,254.94,27,237.24,16.62,211c-5.7-14.44-9.85-40.69-10.57-66.87-.48-17.61.28-49.48,10.82-65.12,22.8-33.81,55.05-38.37,83.59-38.37,8.48,0,17.15.43,25.54.84,8.2.41,16.68.82,24.78.82,20.24,0,34.57-2.73,46.49-8.85a194.06,194.06,0,0,1,88.3-21.55,186.55,186.55,0,0,1,85,20.34c21.27,10.77,43.58,12.49,67.21,14.3,16.93,1.3,34.45,2.65,53.54,7.21,25.13,6,44,22.68,54.61,48.19,18.65,44.92,8.51,108.17-11.58,141-7.72,12.63-34.41,21.29-81.6,26.49-32.87,3.62-75.63,5.45-127.1,5.45-20.57,0-38.6-.28-52-.53-4-.08-8.29-.11-12.63-.11-18.69,0-37.38.69-55.46,1.36C188,276.3,171.35,276.91,155.15,276.91Z"/><path class="cls-2" d="M285.57,14.44a185.27,185.27,0,0,1,83.89,20.07c36.7,18.59,75,10.65,121.3,21.71,78.79,18.85,71.34,136.65,41.48,185.46C516,268.17,404.66,272.43,325.67,272.43c-20.13,0-38.15-.28-52-.53q-6.34-.12-12.68-.11c-36.55,0-72.77,2.62-105.88,2.62C92.3,274.41,40.62,265,19,210.12c-11-27.93-16.7-104.91,0-129.67C40.3,48.77,69.74,43.18,100.46,43.18c16.76,0,33.9,1.66,50.32,1.66,17.07,0,33.36-1.79,47.63-9.13a190.78,190.78,0,0,1,87.16-21.27m0-5v0a196.55,196.55,0,0,0-89.44,21.83c-11.55,5.93-25.53,8.57-45.35,8.57-8,0-16.49-.41-24.66-.82-8.41-.41-17.12-.84-25.66-.84-29.2,0-62.21,4.69-85.66,39.47C3.87,93.87,3.06,126.33,3.55,144.23c.72,26.46,4.94,53,10.75,67.73,10.62,26.88,28.77,45,55.48,55.52,21,8.25,47.35,11.93,85.37,11.93,16.24,0,32.89-.61,50.52-1.27,18.05-.66,36.72-1.35,55.36-1.35,4.32,0,8.55,0,12.59.11,13.41.25,31.46.53,52.05.53,51.55,0,94.41-1.84,127.38-5.47,21.63-2.38,39.32-5.58,52.6-9.5,16.22-4.79,26.31-10.74,30.86-18.17,20.4-33.36,30.7-97.62,11.74-143.26-10.91-26.29-30.39-43.47-56.33-49.67-19.29-4.61-36.9-6-53.93-7.27-23.37-1.8-45.44-3.49-66.27-14A189,189,0,0,0,285.57,9.44Z"/></g><g id="Layer_3" data-name="Layer 3"><rect class="cls-3" y="-136.71" width="558.82" height="558.82"/><path class="cls-4" d="M274.41,32.67c-2.31-2.62-5.87-3.12-10.74-1.57-4.25,1.35-8.28,6.53-12.44,8.16C232.55,46.57,159.31,74,158.65,72.79c-5.38-9.56-18.5-10-31.6-11.62-5.33-.66-28.49-1-47.21,2.73-8.06,1.61-26.72,8.37-28.48,16.39-1.06,4.79,10,11.28,11.31,16,5.11,18.16-10.2,57.14-5.07,75.3,1.46,5.18,8,14.54,12.48,17.56,7.57,5.11,26.37,8.48,35.51,8.58,10.92.11,33.92-2.84,42.68-9.37,4.46-3.33,9.6-14.06,10.77-19.5,3.85-17.89-4-55.65-5.6-73.88a16.92,16.92,0,0,1,3.31-11.36c1.92-2.37,79.22-32.42,99.7-40,6-2.24,10.79-1.21,13.31-2.38C273.5,39.54,276.12,34.61,274.41,32.67ZM134.22,119.16a76,76,0,0,0,7.78,4.67,42.4,42.4,0,0,0-4.93,8.17,51.38,51.38,0,0,0-7.78-5.7Q132.67,121.62,134.22,119.16ZM144,179.48a28,28,0,0,1-9,3.77,41.3,41.3,0,0,1-9.93,1.42q-.53,0-6,.19t-6.48.2q-23.1,0-33.6-3.76-12.72-4.55-12.72-15.83a28.86,28.86,0,0,1,1.43-8.3c1-3.11,2-5.28,3.24-6.49,0-.69.44-1,1.3-1s1.43.56,1.43,1.68a12.13,12.13,0,0,0-1.82,4.35,21.8,21.8,0,0,0-.91,5.51q0,14.66,46.32,14.66,14,0,20.36-1.94,8.82-2.73,8.82-6.88a9.36,9.36,0,0,0-1.42-4.67q-4.29,6.09-10.12,6.1-6.87,0-6.88-6.88a28.91,28.91,0,0,1,3.25-12.26q3.24-6.81,6.61-6.81,4,0,8.11,7.46a31.55,31.55,0,0,1,4.09,15.37Q150.05,175.33,144,179.48Z"/><path class="cls-4" d="M105.07,219.88v27.66a5,5,0,0,1-4.88,4.88H98.9A4.55,4.55,0,0,1,95.52,251a4.75,4.75,0,0,1-1.41-3.42v-26.2c0-1.89-.42-3.21-1.24-4s-2.24-1.16-4.24-1.16H77.24c-.51,0-.77.23-.77.69v3.68q0,15.24,3.77,20.72,2.91,4.28,2.91,7A4.1,4.1,0,0,1,79,252.42H63.12a4.11,4.11,0,0,1-3-1.2,3.89,3.89,0,0,1-1.24-2.91,4.25,4.25,0,0,1,4.2-4.2h8c.06,0,.09,0,.09-.08a.24.24,0,0,0-.09-.17q-5.82-6.26-5.82-23.29v-3.68a.61.61,0,0,0-.68-.69H63.12a4.23,4.23,0,0,1-4.2-4.19,3.89,3.89,0,0,1,1.24-2.91,4.11,4.11,0,0,1,3-1.2h28.5Q105.06,207.9,105.07,219.88Z"/><path class="cls-4" d="M141.37,219.88v27.66A4.72,4.72,0,0,1,140,251a4.53,4.53,0,0,1-3.37,1.46h-2.06a5,5,0,0,1-4.88-4.88v-26.2q0-2.91-1.2-4c-.8-.75-2.2-1.12-4.19-1.12H111.14a3.89,3.89,0,0,1-2.91-1.24,4.09,4.09,0,0,1-1.2-3,4.1,4.1,0,0,1,4.11-4.11H128Q141.38,207.9,141.37,219.88Z"/><path class="cls-4" d="M185.8,248.31a4.1,4.1,0,0,1-4.11,4.11H149.16a4.1,4.1,0,0,1-4.11-4.11,4.09,4.09,0,0,1,1.2-2.95,3.9,3.9,0,0,1,2.91-1.25h18.41a.6.6,0,0,0,.68-.68V221c0-1.89-.35-3.15-1.07-3.81s-2-1-3.89-1H152a3.86,3.86,0,0,1-2.91-1.24,4,4,0,0,1-1.2-3A4.1,4.1,0,0,1,152,207.9h15.15q12.24,0,12.24,12.24v23.29c0,.45.26.68.77.68h1.54a3.87,3.87,0,0,1,2.91,1.25A4.09,4.09,0,0,1,185.8,248.31Z"/><path class="cls-4" d="M211.23,219.88v27.66a5,5,0,0,1-4.88,4.88h-2a5,5,0,0,1-4.89-4.88v-26.2c0-1.94-.4-3.28-1.19-4s-2.2-1.12-4.2-1.12h-3.34a4.23,4.23,0,0,1-4.19-4.19,3.89,3.89,0,0,1,1.24-2.91,4.09,4.09,0,0,1,3-1.2h7.11Q211.23,207.9,211.23,219.88Z"/><path class="cls-4" d="M254,212a4.09,4.09,0,0,1-1.2,3,3.89,3.89,0,0,1-2.91,1.24H248.3c-.51,0-.77.23-.77.69v30.65a4.75,4.75,0,0,1-1.41,3.42,4.55,4.55,0,0,1-3.38,1.46h-2.06a5,5,0,0,1-4.88-4.88V216.89a.6.6,0,0,0-.68-.69H217.31A3.89,3.89,0,0,1,214.4,215a4.09,4.09,0,0,1-1.2-3,4.1,4.1,0,0,1,4.11-4.11h32.54A4.1,4.1,0,0,1,254,212Z"/><path class="cls-4" d="M301.05,230.58v17a5,5,0,0,1-4.89,4.88H281.44a3.93,3.93,0,0,1-3-1.2,4,4,0,0,1-1.15-2.91,4.09,4.09,0,0,1,1.2-2.95,3.87,3.87,0,0,1,2.91-1.25h7.87c.52,0,.78-.23.78-.68V231.7q0-8.05-2.32-11.94c-1.54-2.6-3.57-3.9-6.07-3.9a7,7,0,0,0-5.31,2.27q-2.14,2.26-4.28,9.29a153.69,153.69,0,0,0-4.2,20.12A5.77,5.77,0,0,1,266,251a5.25,5.25,0,0,1-3.63,1.42h-1.46a3.91,3.91,0,0,1-3.17-1.46,4.28,4.28,0,0,1-.94-3.42q2.06-13.87,1.88-19.39t-3-15.63a3.38,3.38,0,0,1,.59-3.17,3.51,3.51,0,0,1,2.92-1.45h1.19a6.21,6.21,0,0,1,3.94,1.33,5.62,5.62,0,0,1,2.15,3.37,44,44,0,0,1,.76,5.66c0,.11,0,.17.09.17s.17,0,.17-.09Q274.25,207,283.07,207,301,207,301.05,230.58Z"/><path class="cls-4" d="M367.91,219.88v27.66a5,5,0,0,1-4.88,4.88h-1.28a4.57,4.57,0,0,1-3.39-1.46,4.75,4.75,0,0,1-1.41-3.42v-26.2c0-1.89-.41-3.21-1.24-4s-2.24-1.16-4.24-1.16H340.09q-.78,0-.78.69v3.68q0,15.24,3.77,20.72,2.91,4.28,2.91,7a4.1,4.1,0,0,1-4.11,4.11H326a4.09,4.09,0,0,1-2.95-1.2,3.89,3.89,0,0,1-1.24-2.91,4.25,4.25,0,0,1,4.19-4.2H334c.05,0,.08,0,.08-.08a.27.27,0,0,0-.08-.17q-5.83-6.26-5.83-23.29v-3.68a.6.6,0,0,0-.68-.69H326a4.23,4.23,0,0,1-4.19-4.19A3.89,3.89,0,0,1,323,209.1a4.09,4.09,0,0,1,2.95-1.2h28.51Q367.91,207.9,367.91,219.88Z"/><path class="cls-4" d="M394.62,219.88v10.53a5,5,0,0,1-4.88,4.89h-2.05a5,5,0,0,1-4.88-4.89v-9.07q0-2.91-1.2-4c-.8-.75-2.2-1.12-4.2-1.12h-3.33a4.23,4.23,0,0,1-4.2-4.19,3.89,3.89,0,0,1,1.24-2.91,4.11,4.11,0,0,1,3-1.2h7.1Q394.62,207.9,394.62,219.88Z"/><path class="cls-4" d="M438.63,248.31a4.1,4.1,0,0,1-4.11,4.11H402a4.1,4.1,0,0,1-4.11-4.11,4.09,4.09,0,0,1,1.2-2.95,3.88,3.88,0,0,1,2.91-1.25h18.4a.61.61,0,0,0,.69-.68V221c0-1.89-.36-3.15-1.07-3.81s-2-1-3.9-1h-11.3A3.89,3.89,0,0,1,401.9,215a4.09,4.09,0,0,1-1.2-3,4.1,4.1,0,0,1,4.11-4.11H420q12.24,0,12.24,12.24v23.29c0,.45.26.68.77.68h1.54a3.9,3.9,0,0,1,2.91,1.25A4.09,4.09,0,0,1,438.63,248.31Z"/><path class="cls-4" d="M473.22,219.88v27.66A4.72,4.72,0,0,1,471.8,251a4.51,4.51,0,0,1-3.37,1.46h-2.06a5,5,0,0,1-4.88-4.88v-26.2q0-2.91-1.2-4c-.8-.75-2.19-1.12-4.19-1.12H443a3.89,3.89,0,0,1-2.92-1.24,4.12,4.12,0,0,1-1.19-3A4.08,4.08,0,0,1,443,207.9h16.86Q473.23,207.9,473.22,219.88Z"/><path class="cls-4" d="M518.76,212.78q-1.28,20.28-12,32.58A39.67,39.67,0,0,1,479.3,259.1a3.95,3.95,0,0,1-4.11-3.94,4.09,4.09,0,0,1,1.2-2.95,4.6,4.6,0,0,1,3-1.42,31.51,31.51,0,0,0,6.94-1.62.73.73,0,0,0,.51-.95l-9-35.62a3.69,3.69,0,0,1,.68-3.25,3.6,3.6,0,0,1,3-1.45h2.4a5.65,5.65,0,0,1,3.77,1.37,5.92,5.92,0,0,1,2.05,3.42L496,242.57c.11.46.34.51.69.17q9.84-9.84,10.95-30.05a5.34,5.34,0,0,1,1.59-3.38,4.62,4.62,0,0,1,3.38-1.41h1.46a4.54,4.54,0,0,1,3.38,1.45A4.45,4.45,0,0,1,518.76,212.78Z"/><path class="cls-4" d="M312.06,68l-8.95,21a9.89,9.89,0,0,1-3.57,4.35A9.42,9.42,0,0,1,294.15,95a4.8,4.8,0,0,1-3.89-2,4.58,4.58,0,0,1-.91-4.28l5.45-20.37a9.69,9.69,0,0,1,3.57-5.12,9.38,9.38,0,0,1,5.77-2h3.38a4.69,4.69,0,0,1,4.15,2.14A4.61,4.61,0,0,1,312.06,68Z"/><path class="cls-4" d="M142.46,157.17a2.29,2.29,0,0,1-.65,1.17,6,6,0,0,1-3,1.17,16.11,16.11,0,0,1-2.34.26A2.18,2.18,0,0,1,134,157.3a6.93,6.93,0,0,1,.91-2.85c.77-1.56,1.64-2.34,2.59-2.34a4.73,4.73,0,0,1,3.24,1.69A4.82,4.82,0,0,1,142.46,157.17Z"/></g><g id="Layer_2" data-name="Layer 2"><path class="cls-2" d="M518.2,106.9V153a8.27,8.27,0,0,1-8.13,8.13H457.56a6.85,6.85,0,0,1-4.93-2,6.49,6.49,0,0,1-2.07-4.85,7.07,7.07,0,0,1,7-7h41.09c.86,0,1.28-.38,1.28-1.15V109.33q0-4.71-2.07-6.64t-7.06-1.92H470.4q-1.29,0-1.29,1.14v5.71q0,6.27,1.5,8.13t7.77,2.14a6.88,6.88,0,0,1,4.58,1.93,6,6,0,0,1,1.85,4.49,6.24,6.24,0,0,1-1.85,4.57,5.56,5.56,0,0,1-4.43,1.71Q461.4,130,456,125.31t-5.42-17.69V95.06a8.3,8.3,0,0,1,8.14-8.14h37.1Q518.2,86.92,518.2,106.9Z"/><path class="cls-2" d="M444.43,106.9v17.55a8.3,8.3,0,0,1-8.14,8.14h-3.42a8.28,8.28,0,0,1-8.13-8.14V109.33c0-1-.31-12.23-.19-13,1-6.11,4.41-9,9.59-9,5.49,0,8.72,3,9.85,9.14C444.28,98.1,444.43,105,444.43,106.9Z"/><path class="cls-2" d="M414.05,106.9V153a8.28,8.28,0,0,1-8.14,8.13h-31.1a6.85,6.85,0,0,1-4.93-2,6.49,6.49,0,0,1-2.07-4.85,7.07,7.07,0,0,1,7-7h18.4a1,1,0,0,0,1.14-1.15V109.33q0-4.85-2-6.71c-1.34-1.24-3.67-1.85-7-1.85H379.8a7.05,7.05,0,0,1-7-7,6.48,6.48,0,0,1,2.06-4.85,6.86,6.86,0,0,1,4.93-2h11.85Q414,86.92,414.05,106.9Z"/><path class="cls-2" d="M364,158.7a4.37,4.37,0,0,1-4.06,2.42h-3a13.08,13.08,0,0,1-7.06-2,12.34,12.34,0,0,1-4.78-5.28,114.44,114.44,0,0,1-6.28-15.56.7.7,0,0,0-.57-.49q-.43-.08-.57.21l-14,16.84a16.36,16.36,0,0,1-13.27,6.27H306.6a3.37,3.37,0,0,1-3.36-2.13,3.59,3.59,0,0,1,.64-4l30.83-35.67a3.49,3.49,0,0,0,.71-2v-8q0-4.85-2.07-6.71c-1.38-1.24-3.69-1.85-6.92-1.85H314.3a6.65,6.65,0,0,1-5-2.07,6.82,6.82,0,0,1-2-4.93,6.57,6.57,0,0,1,2-4.85,6.78,6.78,0,0,1,5-2h16.84q22.41,0,22.4,20v7.42A75.26,75.26,0,0,0,356,133.45a101.88,101.88,0,0,0,8.13,20.4A4.79,4.79,0,0,1,364,158.7Z"/><path class="cls-2" d="M266.72,135.72l13.41,18.84a3.64,3.64,0,0,1,.36,4.28,4,4,0,0,1-3.78,2.28h-3.57a16,16,0,0,1-7.2-1.71,14.14,14.14,0,0,1-5.64-4.85L241,127.16c-.39-.66-.86-.71-1.43-.14q-2.43,3-4.71,12.85l-3,13.41a9.44,9.44,0,0,1-3.49,5.63,9.93,9.93,0,0,1-6.36,2.21h-1.56a6.38,6.38,0,0,1-6.14-7.84l3.42-14.42q4.14-17.27,12.42-24.83a1.09,1.09,0,0,0,.29-1.71L217.06,93.49a4.19,4.19,0,0,1,3.43-6.57h3.56a16.52,16.52,0,0,1,7.35,1.71,13.37,13.37,0,0,1,5.49,4.86l19.27,27.39c.47.67.95.72,1.43.15q2.42-3,4.7-12.84l3-13.42a10.12,10.12,0,0,1,3.64-5.63,9.69,9.69,0,0,1,6.21-2.22h1.57a6.14,6.14,0,0,1,5.06,2.43,5.72,5.72,0,0,1,1.07,5.42l-3.42,14.42q-4,17.27-12.41,24.82A1.08,1.08,0,0,0,266.72,135.72Z"/><path class="cls-2" d="M207.36,106.9v77.49a8.3,8.3,0,0,1-8.14,8.13H195.8a8.28,8.28,0,0,1-8.13-8.13s-.44-48.81-.39-77.31c0-11.78,0-8.8,0-9.06,1.17-11.65,18.92-10.88,19.9-.29C207.31,98.67,207.36,105.88,207.36,106.9Z"/></g></svg>